<?xml version="1.0" encoding="utf-8"?>
<!-- Generator: Adobe Illustrator 28.1.0, SVG Export Plug-In . SVG Version: 6.00 Build 0)  -->
<svg version="1.1" id="Layer_1" xmlns="http://www.w3.org/2000/svg" xmlns:xlink="http://www.w3.org/1999/xlink" x="0px" y="0px"
	 viewBox="0 0 300 300" style="enable-background:new 0 0 300 300;" xml:space="preserve">
<style type="text/css">
	.st0{fill:#D9C0FF;}
	.st1{fill:#A901ED;}
	.st2{opacity:0.2;enable-background:new    ;}
	.st3{fill:#FFFFFF;}
	.st4{fill:#E0E0E0;}
	.st5{fill:#F5F5F5;}
	.st6{fill:#EBEBEB;}
	.st7{fill:#F0F0F0;}
	.st8{fill:#455A64;}
	.st9{fill:#37474F;}
	.st10{fill:#263238;}
	.st11{opacity:0.7;fill:#FFFFFF;enable-background:new    ;}
	.st12{opacity:0.1;enable-background:new    ;}
	.st13{opacity:0.2;fill:#FFFFFF;enable-background:new    ;}
	.st14{fill:#FAC7BB;}
	.st15{fill:#232730;}
	.st16{fill:#E2B3AA;}
	.st17{fill:#2B2419;}
	.st18{display:none;opacity:0.2;enable-background:new    ;}
	.st19{display:none;opacity:0.3;enable-background:new    ;}
	.st20{display:none;opacity:0.7;fill:#FFFFFF;enable-background:new    ;}
	.st21{opacity:0.5;enable-background:new    ;}
</style>
<path class="st0" d="M65.1,245.1c46.9,22.3,122.8,22.3,169.7,0s46.9-58.5,0-80.9s-122.8-22.3-169.7,0
	C18.3,186.6,18.3,222.8,65.1,245.1z"/>
<path class="st1" d="M61.6,222.3l5.5-3.2c3.1-2.5,5.4-5.8,6.8-9.6c1.7-4.7,1.5-8.3,0.2-10.1c-1.5-2.2-5.4-1.8-5.6,2.8
	C68.3,211.4,65.6,217.8,61.6,222.3z"/>
<path class="st2" d="M61.6,222.3l5.5-3.2c3.1-2.5,5.4-5.8,6.8-9.6c1.7-4.7,1.5-8.3,0.2-10.1c-1.5-2.2-5.4-1.8-5.6,2.8
	C68.3,211.4,65.6,217.8,61.6,222.3z"/>
<path class="st3" d="M61.6,222.6c-0.1,0-0.1,0-0.2-0.1c-0.1,0-0.1-0.1-0.1-0.2c0-0.1,0-0.1,0-0.2c0-0.1,0.1-0.1,0.1-0.2
	c12.8-8.8,10.3-21.2,10.3-21.3v-0.1c0,0,0-0.1,0.1-0.1l0.1-0.1c0,0,0.1,0,0.1-0.1h0.1c0,0,0.1,0,0.1,0.1l0.1,0.1c0,0,0,0.1,0.1,0.1
	c0,0.1,2.6,12.9-10.6,22C61.7,222.6,61.7,222.6,61.6,222.6z"/>
<path class="st1" d="M50.5,228.7c0,0-1.9-1.6-1.5-3.7c0.5-2.1,1.7-3.6-0.4-6.4c-2.1-2.7-2.7-6.4-0.2-8.4c1.9-1.5,5,0.6,6.1-3.4
	c0.8-3,0.5-9.5,4.3-11.7s6.1,1.1,5.5,5.5c-0.5,4-1.3,7.8-0.7,8.8c1.1,2,3,1.8,2.9,5.5c-0.1,3.5-3.4,6.3-3.4,6.3L50.5,228.7z"/>
<path class="st3" d="M56.8,225.3c-0.1,0-0.2,0-0.2-0.1c-0.1-0.1-0.1-0.1-0.1-0.2c-1-8.1,1.4-22,3.3-26.1c0,0,0-0.1,0.1-0.1l0.1-0.1
	h0.1h0.1c0,0,0.1,0,0.1,0.1s0.1,0.1,0.1,0.1v0.1v0.1c-1.9,4.1-4.1,18-3.2,25.7c0,0.1,0,0.2-0.1,0.2C57.1,225.2,57,225.3,56.8,225.3
	L56.8,225.3z"/>
<path class="st3" d="M56.6,219.1C56.5,219.1,56.5,219.1,56.6,219.1c-2.5-1.2-4-5.3-4-5.4v-0.1v-0.1c0,0,0-0.1,0.1-0.1l0.1-0.1h0.1
	H53c0,0,0.1,0,0.1,0.1l0.1,0.1c0,0,1.5,4,3.6,5c0.1,0,0.1,0.1,0.2,0.2c0,0.1,0,0.1,0,0.2c0,0.1-0.1,0.1-0.1,0.2
	C56.8,219,56.7,219,56.6,219.1L56.6,219.1z"/>
<path class="st3" d="M56.6,221.8c-0.1,0-0.1,0-0.2-0.1c-0.1,0-0.1-0.1-0.1-0.2c0-0.1,0-0.2,0-0.3s0.1-0.1,0.2-0.2
	c4-1.6,6.4-6.3,6.5-6.4c0-0.1,0.1-0.1,0.2-0.2c0.1,0,0.2,0,0.3,0s0.1,0.1,0.2,0.2c0,0.1,0,0.2,0,0.3c-0.1,0.2-2.6,5-6.8,6.7
	C56.7,221.8,56.7,221.8,56.6,221.8z"/>
<path class="st1" d="M195.4,185.2c0,0-3-4.8-3.3-10s0.9-7.4,2.4-8c1.6-0.6,1.7,1.3,2.5,2.4c0.8,1.1,2.5,0.5,3.1-3.1
	s2.8-9.5,7.5-10.7c5.1-1.3,2.4,4.7,1.1,7.1c-1.3,2.3-2.3,5.5-1.4,6.4c0.8,0.9,2.2-0.7,3.4,0.7c1.5,1.8-3.2,8.2-5.9,9.8L195.4,185.2z
	"/>
<path class="st3" d="M199.5,183.2h-0.1c0,0-0.1,0-0.1-0.1l-0.1-0.1v-0.1c0.5-8.4,3.1-16.6,7.6-23.7l0.1-0.1h0.1h0.1
	c0,0,0.1,0,0.1,0.1c0.1,0.1,0.1,0.1,0.1,0.2c0,0.1,0,0.2-0.1,0.2c-4.5,7-7,15-7.5,23.3v0.1c0,0,0,0.1-0.1,0.1L199.5,183.2
	C199.6,183.2,199.5,183.2,199.5,183.2z"/>
<path class="st3" d="M199.9,179.1c-0.1,0-0.1,0-0.2,0c-1.9-1.1-3-4.2-3-4.3v-0.1v-0.1c0,0,0-0.1,0.1-0.1l0.1-0.1c0.1,0,0.2,0,0.3,0
	s0.1,0.1,0.2,0.2c0,0,1,3,2.7,3.9c0.1,0,0.1,0.1,0.2,0.2c0,0.1,0,0.2,0,0.3s-0.1,0.1-0.1,0.1C200,179.1,200,179.1,199.9,179.1z"/>
<path class="st3" d="M200.2,177.1c-0.1,0-0.1,0-0.2-0.1c-0.1,0-0.1-0.1-0.1-0.2v-0.1v-0.1l0.1-0.1c0,0,0.1,0,0.1-0.1
	c4.9-1.2,6.6-3.8,6.6-3.8l0.1-0.1c0,0,0.1,0,0.1-0.1h0.1h0.1l0.1,0.1c0,0,0,0.1,0.1,0.1v0.1v0.1
	C207.3,173.1,205.5,175.8,200.2,177.1L200.2,177.1z"/>
<path class="st1" d="M121.4,174.6c0,0-6.5-1.6-6.9-13.8c-0.4-13.2,1.6-28.6-6.1-29.8s-12,8.2-11.9,19.1c0.1,9.6,4,30.5,24.9,34.6
	V174.6z"/>
<path class="st2" d="M121.4,174.6c0,0-6.5-1.6-6.9-13.8c-0.4-13.2,1.6-28.6-6.1-29.8s-12,8.2-11.9,19.1c0.1,9.6,4,30.5,24.9,34.6
	V174.6z"/>
<path class="st3" d="M121.4,183.5L121.4,183.5c-4.8-0.9-8.6-3.4-11.4-7.7c-8.4-12.6-5.8-36.1-4.9-40.2c0-0.1,0.1-0.2,0.1-0.2
	c0.1-0.1,0.2-0.1,0.3-0.1c0.1,0,0.2,0.1,0.2,0.2c0,0.1,0.1,0.2,0.1,0.3c-0.9,4.1-3.5,27.3,4.8,39.7c1.2,1.9,2.8,3.6,4.7,4.8
	c1.9,1.3,4,2.1,6.2,2.6c0,0,0.1,0,0.1,0.1s0.1,0.1,0.1,0.1s0,0.1,0.1,0.1v0.1c0,0.1-0.1,0.1-0.1,0.2
	C121.6,183.5,121.5,183.5,121.4,183.5z"/>
<path class="st1" d="M121.4,214.8c-6.7,0.9-17.7,0.9-24-4.1c-6.3-5-5-9.3-2.6-11.1s4.5-3.8,0.4-7.8c-4.2-4-10.9-10.4-13.1-19.9
	c-2.2-9.6-1.1-15.6,3.2-17.5c4.1-1.9,5.2,1.1,7.8,7.5c2.5,6.3,8.2,0.9,13.1,2.9s4.7,5.9,5,9.3c0.3,3.4,1.9,4.3,4.7,4.3
	s5.5,1.6,5.5,4.8V214.8z"/>
<path class="st3" d="M121.4,203.7L121.4,203.7c-0.4-0.1-7.4-2.1-17.5-11.4c-10.8-9.9-15.9-24.8-16-25c0-0.1,0-0.2,0-0.3
	s0.1-0.1,0.2-0.2c0.1,0,0.2,0,0.3,0c0.1,0,0.1,0.1,0.2,0.2c0,0.1,5.1,14.9,15.8,24.7c10,9.2,17.1,11.3,17.1,11.3s0.1,0,0.1,0.1
	l0.1,0.1v0.1v0.1c0,0.1-0.1,0.1-0.1,0.2C121.6,203.7,121.5,203.7,121.4,203.7z"/>
<path class="st3" d="M106.8,194.6c-0.1,0-0.1,0-0.2-0.1c-0.1,0-0.1-0.1-0.1-0.2c-2.2-5.6-2.7-17.6-2.7-18.1c0-0.1,0-0.2,0.1-0.2
	c0.1-0.1,0.1-0.1,0.2-0.1s0.2,0,0.2,0.1c0.1,0.1,0.1,0.1,0.1,0.2c0,0.1,0.5,12.4,2.7,17.9v0.1v0.1c0,0,0,0.1-0.1,0.1L106.8,194.6
	C106.8,194.6,106.8,194.6,106.8,194.6z"/>
<path class="st3" d="M106.7,202.7c-0.6,0-1.3,0-1.9-0.1h-0.1l-0.1-0.1c0,0,0-0.1-0.1-0.1v-0.1v-0.1l0.1-0.1c0,0,0.1,0,0.1-0.1h0.1
	c0.1,0,6.4,0.7,9.3-2.2l0.1-0.1h0.1h0.1c0,0,0.1,0,0.1,0.1l0.1,0.1v0.1v0.1c0,0,0,0.1-0.1,0.1C112.6,202.3,108.9,202.7,106.7,202.7z
	"/>
<path class="st4" d="M101.8,73.9l-0.7-4.2l-3.8,2.5c-0.3-0.7-0.8-1.3-1.4-1.7l1.8-4.9l-3.4-0.8l-2.5,4.8c-0.9,0.2-1.8,0.4-2.6,0.8
	l-1.1-3.6l-4,3.2l0.3,4.2c-0.8,0.9-1.6,1.9-2.2,3L78.8,77l-2.3,5.2l2.9,1.2c-0.3,1.1-0.5,2.2-0.6,3.3L75.2,90l0.7,4.2l3.8-2.5
	c0.3,0.7,0.8,1.3,1.4,1.7l-1.8,4.9l3.4,0.7l3.6-3.5c0.8-0.1,0.6-1.7,1.5-2.1l1.1,3.6l4-3.2l-0.1-1.7c0.8-0.9,3.9-2.9,4.6-4l0.8-1.4
	l2.3-5.2l-1.1-2l-1.2-2.6L101.8,73.9z M89.5,87.9c-3.1,2.4-4.1,3-4.6-0.3s1.3-8.2,4.4-10.7c3.1-2.4,4.3-2.6,4.8,0.6
	C94.6,80.8,92.6,85.5,89.5,87.9z"/>
<path class="st5" d="M94.3,64.8l4.4,2.5L96.2,72l-4.4-2.5L94.3,64.8z"/>
<path class="st5" d="M105.5,72.2l-3.8,2.5l-4.4-2.5l3.8-2.5L105.5,72.2z"/>
<path class="st4" d="M104.9,84.4l-2.9-1.2l-4.4-2.5l2.9,1.2L104.9,84.4z"/>
<path class="st4" d="M79.3,98.5l4.4,2.5l1.8-4.9l-4.4-2.5L79.3,98.5z"/>
<path class="st4" d="M93.2,99.8l-4.4-2.5l-1.1-3.6l4.4,2.5L93.2,99.8z"/>
<path class="st6" d="M106.2,76.5l-0.7-4.2l-3.8,2.5c-0.3-0.7-0.8-1.3-1.4-1.7l1.8-4.9l-3.4-0.8l-2.5,4.8c-0.9,0.2-1.8,0.4-2.6,0.8
	l-1.1-3.6l-4,3.2l0.3,4.2c-0.8,0.9-1.6,1.9-2.2,3l-3.3-0.2L81,84.8l2.9,1.2c-0.3,1.1-0.5,2.2-0.6,3.3l-3.6,3.3l0.7,4.2l3.8-2.5
	c0.3,0.7,0.8,1.3,1.4,1.7l-1.8,4.9l3.4,0.8l2.5-4.8c0.9-0.2,1.8-0.4,2.6-0.9l1.1,3.6l4-3.2l-0.4-4c0.8-0.9,1.6-1.9,2.2-3l3.3,0.2
	l2.3-5.2l-2.9-1.2c0.3-1.1,0.5-2.2,0.6-3.3L106.2,76.5z M93.9,90.4c-3.1,2.4-6.1,1.8-6.6-1.5c-0.6-3.3,1.5-7.9,4.6-10.3
	s6.1-1.8,6.6,1.5C99.1,83.4,97,88,93.9,90.4z"/>
<path class="st5" d="M92.6,69.3l-4.4-2.5l-4,3.2l4.4,2.5L92.6,69.3z"/>
<path class="st4" d="M84.1,70l0.3,4.2l4.4,2.5l-0.3-4.2L84.1,70z"/>
<path class="st5" d="M86.5,79.7l-4.4-2.5L78.8,77l4.4,2.5L86.5,79.7z"/>
<path class="st4" d="M78.8,77l-2.3,5.2l4.4,2.5l2.3-5.2L78.8,77z"/>
<path class="st5" d="M83.2,89.3l-4.4-2.5l-3.6,3.3l4.4,2.5L83.2,89.3z"/>
<path class="st4" d="M80.3,96.9l-4.4-2.5l-0.7-4.2l4.4,2.5L80.3,96.9z"/>
<path class="st5" d="M98.7,67.3l-4.4-2.5l3.4,0.8l4.4,2.5L98.7,67.3z"/>
<path class="st4" d="M82.1,54.7v-6.3l-5,2.3c-0.3-1.1-0.7-2.1-1.4-3l3.2-6.4L75,39l-4,6c-1.1-0.1-2.2,0-3.3,0.3l-0.6-5.5L61.6,43
	L61,49.1c-1.2,1.1-2.3,2.2-3.3,3.5l-4-1.4L50,57.9l3.2,2.7c-0.6,1.5-1,3-1.4,4.6l-5,3.5V75l5-2.3c0.3,1.1,0.7,2.1,1.4,3L50,82.2
	l3.9,2.2l4-6c1.1,0.1,2.2,0,3.3-0.3l0.6,5.5l5.5-3.2l0.6-6.1c1.7-0.6,3.2-1.7,4.4-3.1l2.8,1l3.9-6.7l-2.4-2c0.5-1.7,0.7-3.5,0.6-5.3
	L82.1,54.7z M64.4,70.5c-4.2,2.4-6.8,0.7-6.8-4.2c0-4.8,3.5-10.8,7.7-13.2s6.8-0.7,6.8,4.2S68.6,68.1,64.4,70.5z"/>
<path class="st5" d="M79.4,41.5L75,39l-4,6l4.4,2.5L79.4,41.5z"/>
<path class="st5" d="M86.5,50.9l-4.4-2.5l-5,2.3l4.4,2.5L86.5,50.9z"/>
<path class="st4" d="M66.1,86.2l-4.4-2.5l-0.6-5.5l4.4,2.5L66.1,86.2z"/>
<path class="st4" d="M50,82.2l4.4,2.5l3.2-6.4l-4.4-2.5L50,82.2z"/>
<path class="st6" d="M86.5,57.3V51l-5,2.3c-0.3-1.1-0.7-2.1-1.4-3l3.2-6.4l-3.9-2.2l-4,6c-1.1-0.1-2.2,0-3.3,0.3l-0.6-5.5L66,45.7
	l-0.6,6.1c-1.2,1.1-2.3,2.2-3.3,3.5l-4-1.4l-3.9,6.7l3.2,2.7c-0.6,1.5-1,3-1.4,4.6l-5,3.5v6.3l5-2.3c0.3,1.1,0.7,2.1,1.4,3l-3.2,6.4
	l3.9,2.2l4-6c1.1,0.1,2.2,0,3.3-0.3l0.6,5.5l5.5-3.2l0.6-6.1c1.2-1.1,2.3-2.2,3.3-3.5l4,1.4l3.9-6.7l-3.2-2.7c0.6-1.5,1-3,1.4-4.6
	L86.5,57.3z M68.8,73.1c-4.2,2.4-7.6,0.5-7.6-4.4s3.4-10.8,7.6-13.2s7.6-0.5,7.6,4.4S73,70.6,68.8,73.1L68.8,73.1z"/>
<path class="st7" d="M57.8,52.5l4.4,2.5l-4-1.4L53.8,51L57.8,52.5z"/>
<path class="st5" d="M53.9,51.2L50,57.9l4.4,2.5l3.9-6.7L53.9,51.2z"/>
<path class="st4" d="M50,57.9l4.4,2.5l3.2,2.7l-4.4-2.5L50,57.9z"/>
<path class="st5" d="M51.8,65.2l4.4,2.5l-5,3.5l-4.4-2.5L51.8,65.2z"/>
<path class="st4" d="M46.8,68.7l4.4,2.5v6.3L46.8,75V68.7z"/>
<path class="st5" d="M71.6,42.3l-4.4-2.5L61.7,43l4.4,2.5L71.6,42.3z"/>
<path class="st4" d="M128.2,223.9l63.9-36.9c0.1-0.1,0.3-0.1,0.4-0.3c0.1-0.1,0.1-0.3,0.1-0.4c0-0.1,0-0.3-0.1-0.4
	c-0.1-0.1-0.2-0.2-0.4-0.3l-5.9-3.4c-0.4-0.2-0.8-0.3-1.2-0.3s-0.8,0.1-1.2,0.3l-63.9,36.9c-0.1,0.1-0.3,0.1-0.3,0.3
	c-0.1,0.1-0.1,0.3-0.1,0.4c0,0.2,0,0.3,0.1,0.4c0.1,0.1,0.2,0.2,0.3,0.3l5.9,3.4c0.4,0.2,0.8,0.3,1.2,0.3
	C127.4,224.2,127.8,224.1,128.2,223.9z"/>
<path class="st8" d="M190.3,44.5l-57.6,33.3c-0.9,0.6-1.6,1.3-2.1,2.2c-0.5,0.9-0.8,1.9-0.9,2.9v136.7c0,1.9,1.3,2.6,2.9,1.7
	l57.6-33.3c0.9-0.6,1.6-1.3,2.1-2.2s0.8-1.9,0.9-2.9V46.2C193.3,44.3,192,43.5,190.3,44.5z"/>
<path class="st9" d="M132.7,77.8l57.6-33.3c1.5-0.8,2.7-0.3,2.9,1.1c-0.1-0.9-0.5-1.8-1-2.6s-1.2-1.5-1.9-2l-2.4-1.4
	C187,39.3,186,39,185,39s-2,0.2-2.9,0.7L124.4,73c-0.9,0.5-1.6,1.3-2.1,2.2l8.3,4.8C131.1,79.1,131.8,78.3,132.7,77.8z"/>
<path class="st10" d="M121.4,214.8c0.1,1,0.4,2,0.9,2.9s1.2,1.6,2.1,2.2l2.4,1.4c0.8,0.4,1.7,0.7,2.7,0.7c0.9,0,1.9-0.1,2.7-0.5
	c-1.4,0.5-2.4-0.3-2.4-1.9V82.9c0-1,0.3-2,0.9-2.9l-8.3-4.8c-0.5,0.9-0.8,1.9-0.9,2.9L121.4,214.8L121.4,214.8z"/>
<path class="st3" d="M134.3,96l54.5-31.5c1-0.6,1.8-0.1,1.8,1v101.2c0,0.6-0.2,1.2-0.5,1.7s-0.7,1-1.3,1.3l-54.5,31.5
	c-1,0.6-1.8,0.1-1.8-1V99.1c0-0.6,0.2-1.2,0.5-1.7C133.3,96.8,133.8,96.3,134.3,96z"/>
<path class="st9" d="M161.5,66.3c-0.3,0.2-0.6,0.5-0.7,0.8c-0.2,0.3-0.3,0.7-0.3,1c0,0.7,0.5,0.9,1,0.6c0.3-0.2,0.6-0.5,0.7-0.8
	c0.2-0.3,0.3-0.7,0.3-1C162.5,66.3,162.1,66,161.5,66.3z"/>
<path class="st9" d="M161.5,190.4c-1.2,0.8-2.2,1.8-2.9,3.1c-0.7,1.2-1.1,2.6-1.2,4c0,2.6,1.8,3.7,4.1,2.4c1.2-0.8,2.2-1.8,2.9-3.1
	s1.1-2.6,1.2-4C165.6,190.1,163.8,189.1,161.5,190.4z"/>
<path class="st9" d="M151.7,76.8c-0.6,0.4-1.1,0.9-1.4,1.6c-0.4,0.6-0.6,1.3-0.6,2c0,1.3,0.9,1.9,2,1.2c0.6-0.4,1.1-0.9,1.5-1.5
	s0.6-1.3,0.6-2C153.8,76.7,152.9,76.2,151.7,76.8z"/>
<path class="st9" d="M156.8,76.4c0,0.9,0.7,1.2,1.5,0.7l13.6-7.9c0.4-0.3,0.8-0.6,1-1c0.3-0.4,0.4-0.9,0.4-1.4
	c0-0.9-0.7-1.2-1.5-0.7L158.2,74c-0.4,0.3-0.8,0.6-1,1S156.8,75.9,156.8,76.4z"/>
<path class="st9" d="M126,100.4c0.5,0.3,0.9,0.7,1.2,1.2c0.3,0.5,0.5,1.1,0.5,1.6c0,1.1-0.7,1.5-1.7,1c-0.5-0.3-0.9-0.7-1.2-1.2
	c-0.3-0.5-0.5-1.1-0.5-1.6C124.4,100.3,125.1,99.8,126,100.4z"/>
<path class="st9" d="M126,113.1c0.5,0.3,0.9,0.7,1.2,1.2c0.3,0.5,0.5,1.1,0.5,1.6c0,1.1-0.7,1.5-1.7,1c-0.5-0.3-0.9-0.7-1.2-1.2
	c-0.3-0.5-0.5-1.1-0.5-1.6C124.4,113,125.1,112.6,126,113.1z"/>
<path class="st8" d="M125.5,100.6c0.5,0.3,0.9,0.7,1.2,1.2c0.3,0.5,0.5,1.1,0.5,1.6c0,1.1-0.7,1.5-1.7,1c-0.5-0.3-0.9-0.7-1.2-1.2
	c-0.3-0.5-0.5-1.1-0.5-1.6C123.9,100.5,124.6,100.1,125.5,100.6z"/>
<path class="st8" d="M125.5,113.4c0.5,0.3,0.9,0.7,1.2,1.2c0.3,0.5,0.5,1.1,0.5,1.6c0,1.1-0.7,1.5-1.7,1c-0.5-0.3-0.9-0.7-1.2-1.2
	c-0.3-0.5-0.5-1.1-0.5-1.6C123.9,113.3,124.6,112.9,125.5,113.4z"/>
<path class="st3" d="M201.6,68.8c0-1.1-0.8-1.6-1.8-1l-6.5,3.8l-48,27.7c-0.5,0.3-0.9,0.8-1.3,1.3c-0.3,0.5-0.5,1.1-0.5,1.7v101.2
	c0,1.1,0.8,1.6,1.8,1l48-27.7l6.5-3.8c0.5-0.3,0.9-0.8,1.3-1.3c0.3-0.5,0.5-1.1,0.5-1.7V68.8z"/>
<path class="st1" d="M202.2,68.8c0-0.3,0-0.7-0.2-1s-0.4-0.6-0.7-0.7c-0.3-0.2-0.6-0.3-1-0.2c-0.3,0-0.7,0.1-0.9,0.4l-6.2,3.6
	L145,98.6c-0.6,0.4-1.1,0.9-1.5,1.6c-0.4,0.6-0.6,1.4-0.6,2.1v101.2c0,0.3,0,0.7,0.2,1s0.4,0.6,0.7,0.7c0.2,0.1,0.5,0.2,0.8,0.2
	c0.4,0,0.8-0.1,1.1-0.3l48.3-27.9l6.2-3.6c0.6-0.4,1.1-0.9,1.5-1.6c0.4-0.6,0.6-1.4,0.6-2.1L202.2,68.8z M193.2,176l-0.6,0.3
	L145,203.9c-0.1,0.1-0.2,0.1-0.3,0.1s-0.2,0-0.3,0c-0.1-0.1-0.2-0.2-0.2-0.6V102.3c0-0.5,0.2-1,0.4-1.4s0.6-0.8,1-1.1l47.6-27.5
	l6.8-3.9c0.1-0.1,0.2-0.1,0.3-0.1s0.2,0,0.3,0c0.1,0.1,0.2,0.2,0.2,0.6v101.2c0,0.5-0.2,1-0.4,1.4s-0.6,0.8-1,1.1L193.2,176
	L193.2,176z"/>
<path class="st1" d="M172.6,92.3c6.1-3.5,11.1-0.7,11.1,6.4s-5,15.6-11.1,19.1s-11.1,0.7-11.1-6.4
	C161.5,104.4,166.5,95.8,172.6,92.3z"/>
<path class="st1" d="M172.6,97.8c2-1.1,3.6-0.2,3.6,2c-0.1,1.2-0.4,2.5-1,3.5c-0.6,1.1-1.5,2-2.5,2.7c-2,1.1-3.6,0.2-3.6-2
	c0.1-1.2,0.4-2.5,1.1-3.5C170.6,99.4,171.5,98.5,172.6,97.8z"/>
<path class="st1" d="M179.5,110c0-3.8-2.6-5.3-5.9-3.4l-2,1.2c-3.3,1.9-5.9,6.4-5.9,10.2v1c1.9,0.6,4.3,0.3,6.8-1.2
	c2.8-1.7,5.2-4.1,7-6.9L179.5,110z"/>
<path class="st11" d="M172.6,97.8c2-1.1,3.6-0.2,3.6,2c-0.1,1.2-0.4,2.5-1,3.5c-0.6,1.1-1.5,2-2.5,2.7c-2,1.1-3.6,0.2-3.6-2
	c0.1-1.2,0.4-2.5,1.1-3.5C170.6,99.4,171.5,98.5,172.6,97.8z"/>
<path class="st11" d="M179.5,110c0-3.8-2.6-5.3-5.9-3.4l-2,1.2c-3.3,1.9-5.9,6.4-5.9,10.2v1c1.9,0.6,4.3,0.3,6.8-1.2
	c2.8-1.7,5.2-4.1,7-6.9L179.5,110z"/>
<path class="st1" d="M151.2,133.3l14.2-8.2c0.7-0.4,1.2-0.1,1.2,0.7v0.5c0,0.4-0.1,0.8-0.3,1.2c-0.2,0.4-0.5,0.7-0.8,0.9l-14.2,8.2
	c-0.6,0.4-1.2,0.1-1.2-0.7v-0.5c0-0.4,0.1-0.8,0.3-1.2C150.5,133.9,150.8,133.6,151.2,133.3z"/>
<path class="st12" d="M151.2,133.3l14.2-8.2c0.7-0.4,1.2-0.1,1.2,0.7v0.5c0,0.4-0.1,0.8-0.3,1.2c-0.2,0.4-0.5,0.7-0.8,0.9l-14.2,8.2
	c-0.6,0.4-1.2,0.1-1.2-0.7v-0.5c0-0.4,0.1-0.8,0.3-1.2C150.5,133.9,150.8,133.6,151.2,133.3z"/>
<path class="st1" d="M150.6,143.2l43-24.8c0.3-0.2,0.6,0,0.6,0.3v5c0,0.2-0.1,0.4-0.2,0.6c-0.1,0.2-0.2,0.3-0.4,0.4l-43,24.8
	c-0.3,0.2-0.6,0-0.6-0.3v-5c0-0.2,0.1-0.4,0.2-0.6C150.3,143.5,150.4,143.4,150.6,143.2z"/>
<path class="st13" d="M150.6,143.2l43-24.8c0.3-0.2,0.6,0,0.6,0.3v5c0,0.2-0.1,0.4-0.2,0.6c-0.1,0.2-0.2,0.3-0.4,0.4l-43,24.8
	c-0.3,0.2-0.6,0-0.6-0.3v-5c0-0.2,0.1-0.4,0.2-0.6C150.3,143.5,150.4,143.4,150.6,143.2z"/>
<path class="st1" d="M151.2,155.7l14.2-8.2c0.7-0.4,1.2-0.1,1.2,0.7v0.5c0,0.4-0.1,0.8-0.3,1.2s-0.5,0.7-0.8,0.9l-14.2,8.2
	c-0.6,0.4-1.2,0.1-1.2-0.7v-0.5c0-0.4,0.1-0.8,0.3-1.2C150.6,156.2,150.8,155.9,151.2,155.7z"/>
<path class="st12" d="M151.2,155.7l14.2-8.2c0.7-0.4,1.2-0.1,1.2,0.7v0.5c0,0.4-0.1,0.8-0.3,1.2s-0.5,0.7-0.8,0.9l-14.2,8.2
	c-0.6,0.4-1.2,0.1-1.2-0.7v-0.5c0-0.4,0.1-0.8,0.3-1.2C150.6,156.2,150.8,155.9,151.2,155.7z"/>
<path class="st1" d="M150.6,165.6l43-24.8c0.3-0.2,0.6,0,0.6,0.3v5c0,0.2-0.1,0.4-0.2,0.6c-0.1,0.2-0.2,0.3-0.4,0.4l-43,24.8
	c-0.3,0.2-0.6,0-0.6-0.3v-5c0-0.2,0.1-0.4,0.2-0.6S150.4,165.7,150.6,165.6z"/>
<path class="st13" d="M150.6,165.6l43-24.8c0.3-0.2,0.6,0,0.6,0.3v5c0,0.2-0.1,0.4-0.2,0.6c-0.1,0.2-0.2,0.3-0.4,0.4l-43,24.8
	c-0.3,0.2-0.6,0-0.6-0.3v-5c0-0.2,0.1-0.4,0.2-0.6S150.4,165.7,150.6,165.6z"/>
<path class="st1" d="M167.8,168.4l17-9.8c0.7-0.4,1.2-0.1,1.2,0.7v5.2c0,0.4-0.1,0.8-0.3,1.2s-0.5,0.7-0.8,0.9l-17,9.8
	c-0.7,0.4-1.2,0.1-1.2-0.7v-5.3c0-0.4,0.1-0.8,0.3-1.2C167.1,168.9,167.4,168.6,167.8,168.4z"/>
<path class="st12" d="M167.8,168.4l17-9.8c0.7-0.4,1.2-0.1,1.2,0.7v5.2c0,0.4-0.1,0.8-0.3,1.2s-0.5,0.7-0.8,0.9l-17,9.8
	c-0.7,0.4-1.2,0.1-1.2-0.7v-5.3c0-0.4,0.1-0.8,0.3-1.2C167.1,168.9,167.4,168.6,167.8,168.4z"/>
<path class="st14" d="M208,146.3c0,0-8.4-11.5-8.8-12.9c-0.4-1,0-2.6,0.1-3.3s0.2-2.3,0.4-2.7c0.2-0.8-0.8-0.6-1.4,0.1
	c-0.6,0.7-0.8,2.1-1,2.4c-0.3,0.2-2.5-3-3.7-4.5s-1.9-2.4-2.6-1.8c-0.5,0.4-0.1,1.3,0.7,2.6c0.5,0.7,0.9,1.4,1.4,2.1
	c0.1,0.3-0.6,0.3-0.9,0.9c-0.3,0.4,0,1.2-0.4,1.5c-0.3,0.2-0.4,0.5-0.5,0.8s0,0.6,0.2,0.9c0.8,1.2,1.7,2.2,2.9,3
	c1.3,0.9,1.8,1.2,2.5,2.3c0.7,1.2,7.4,13.2,7.8,13.9c0.4,0.7,1.3,2.2,2.6,2.2s12.1-9.2,12.6-9.7c1.8-1.5,2.3-1.7,2.6-0.4
	c0.1,0.5,0.2,0.9,0.2,1.4c0.2,1.7,1.4,7.7,1.4,7.7s5.4,2.6,9.9,1.4c4.5-1.3,6-3.2,6-3.2l-2.2-3.6c0.6-1.5,3.4-7.6,4.3-11.9l-14-2.3
	c-0.3-0.1-0.7-0.2-1.4-0.3c-0.8-0.2-2.7-0.9-4.2,0.4C217.6,137.5,208,146.3,208,146.3"/>
<path class="st15" d="M235.8,216.9l-2.5,3.5c1.1,0.5,2.4,0.8,3.6,0.8c2.3,0.1,2.9-0.7,3-0.8c0.4-0.8-0.2-2.3-0.4-3.6L235.8,216.9z"
	/>
<path class="st15" d="M233.4,218.8c0,0-3-0.2-5.1-0.5s-3.8,0.8-3.3,1.6c0.5,0.9,1.7,1.6,3.5,2.2c1.5,0.5,3.4,0.9,5,1.4
	s2.7,1.1,3.7,0.7c1-0.4,1.5-0.8,1.4-1.5c-0.2-1.1-0.5-2.2-0.8-3.2L233.4,218.8z"/>
<path class="st16" d="M239.9,213.4c0,0-0.4,3.2-0.4,3.8c0,0.7-3.1,0.9-3.7-0.3l-0.1-3.9L239.9,213.4z"/>
<path class="st14" d="M236.8,215.4l1.1,4.8c0,0,0.1,0.6-2.4,1s-6.4-1.3-7.1-1.7c-0.7-0.3-0.7-1,1.7-0.9s3.3,0.1,3.3,0.1l-0.8-2.1
	L236.8,215.4z"/>
<path class="st14" d="M241.9,135.5l1.7-0.5c0,0,3.6,11.5,4,12.6s0.9,2.3,0.1,3.6c-0.9,1.6-5.8,8.2-5.8,8.2l-3.1-3l3.5-6.5l-3.1-6.3
	L241.9,135.5z"/>
<path class="st17" d="M224.1,120.6c-0.4-0.8-0.6-1.6-0.6-2.5s0.2-1.7,0.7-2.5c1.7-3.2,5.6-4.8,10.2-4.2c2.1,0.3,4.6,2,6,4.7
	c1.5,2.9,1.7,8.8,2,11L224.1,120.6z"/>
<path class="st14" d="M224,121.8c0,0-1.1,2.1-0.9,2.3c0.3,0.2,0.6,0.3,0.9,0.3V121.8z"/>
<path class="st14" d="M227.3,115.3c-1.2,0.8-3.2,2.2-3.3,6.8c-0.1,4.8,0.6,6.3,1.3,6.9c0.5,0.4,3.3,0.2,4.5-0.1s4.6-2,5.9-4.6
	c1.5-3,1.2-7.5-1-8.8c-1.1-0.7-2.4-1-3.6-1.1C229.7,114.4,228.5,114.7,227.3,115.3z"/>
<path class="st15" d="M239.9,151c2.1,3.3,4.1,6.1,4.5,9.8c0.9,7.7-2,16.6-2.7,22.3c1.2,1.6,1.9,3.6,2,5.6c0,2.4-3.8,24.7-3.8,24.7
	s-2.8,0.8-4.2-0.4l-2.6-41.1l1.4-5L239.9,151z"/>
<path class="st18" d="M239.9,151c2.1,3.3,4.1,6.1,4.5,9.8c0.9,7.7-2,16.6-2.7,22.3c1.2,1.6,1.9,3.6,2,5.6c0,2.4-3.8,24.7-3.8,24.7
	s-2.8,0.8-4.2-0.4l-2.6-41.1l1.4-5L239.9,151z"/>
<path d="M233.1,172l1.4-5c2.6-0.7,5.1-1.7,7.5-3c0,0-1.4,2.6-5.5,4l-2.1,6.4l-0.2,14.7L233.1,172z"/>
<path class="st19" d="M233.1,172l1.4-5c2.6-0.7,5.1-1.7,7.5-3c0,0-1.4,2.6-5.5,4l-2.1,6.4l-0.2,14.7L233.1,172z"/>
<path class="st15" d="M239.9,151c1.1,1.8,3.8,5,3.2,8c-0.7,3.6-2.7,6.2-8.6,8l-5.6,20.4c0,0,2.9,2.7,3.8,5.4
	c0.9,2.6,4.1,22.7,4.1,22.7s-1,1.6-4.2,1.2c0,0-11-25.2-11.8-26.8c-0.9-1.7-1.3-3.6-0.9-5.5c0.3-2.6,4.1-31.5,4.1-31.5L239.9,151z"
	/>
<path class="st18" d="M239.9,151c1.1,1.8,3.8,5,3.2,8c-0.7,3.6-2.7,6.2-8.6,8l-5.6,20.4c0,0,2.9,2.7,3.8,5.4
	c0.9,2.6,4.1,22.7,4.1,22.7s-1,1.6-4.2,1.2c0,0-11-25.2-11.8-26.8c-0.9-1.7-1.3-3.6-0.9-5.5c0.3-2.6,4.1-31.5,4.1-31.5L239.9,151z"
	/>
<path class="st1" d="M241.9,135.5l-14-2.3c-0.3-0.1-0.7-0.2-1.4-0.3c0,0-0.6,8.8-4.2,10.8c0.1,0.4,0.2,0.9,0.2,1.4
	c0.2,1.7,1.4,7.7,1.4,7.7s5.4,2.6,9.9,1.4c4.5-1.3,6-3.2,6-3.2l-2.2-3.6C238.2,145.9,241.1,139.8,241.9,135.5z"/>
<path class="st20" d="M241.9,135.5l-14-2.3c-0.3-0.1-0.7-0.2-1.4-0.3c0,0-0.6,8.8-4.2,10.8c0.1,0.4,0.2,0.9,0.2,1.4
	c0.2,1.7,1.4,7.7,1.4,7.7s5.4,2.6,9.9,1.4c4.5-1.3,6-3.2,6-3.2l-2.2-3.6C238.2,145.9,241.1,139.8,241.9,135.5z"/>
<path class="st21" d="M238.2,145.9c-1.9,1.1-3.8,2.1-5.8,2.9c1.8,0,3.6-0.5,5.2-1.4L238.2,145.9z"/>
<path class="st17" d="M227,115.5c0,0-0.7,4.4,0.9,7c0,0,0.6-1.8,2.1-1.4c1.5,0.3,1.6,2.3,0.5,3.4c-0.3,0.3-0.6,0.5-1,0.7
	c-0.4,0.1-0.8,0.1-1.2,0c0,0-0.2,3.2-0.4,5.9c-0.1,2.7-0.8,8.5,2.2,10.9s10.6,3.2,14.1-1.8c2-2.8-0.6-7.6-1.9-13.1
	c-1.1-5-1.8-12.5-7.1-13.7S227,115.5,227,115.5z"/>
<path class="st6" d="M246.5,55.1l-1.1,0.7c0.1-0.4,0.1-0.8,0.2-1.2c0-2.3-1.6-3.2-3.6-2c-0.6,0.4-1.1,0.8-1.6,1.4
	c0-3.1-2.1-4.3-4.8-2.8c-1.4,0.9-2.6,2.1-3.4,3.6c-0.8,1.4-1.3,3.1-1.4,4.7c0,0.2,0,0.3,0,0.5c-0.7-0.1-1.4,0.1-2,0.4
	c-1,0.7-1.9,1.6-2.5,2.7s-1,2.3-1,3.5c0,0.3,0,0.6,0.1,0.9l-0.6,0.3c-1.6,0.9-2.9,2.8-2.9,4.1c0,1.3,1.3,1.6,2.9,0.7l21.8-12.5
	c1.6-0.9,2.9-2.8,2.9-4.1C249.5,54.6,248.1,54.2,246.5,55.1z"/>
</svg>
